<?xml version="1.0" encoding="UTF-8" standalone="no"?>
<!-- Created with Inkscape (http://www.inkscape.org/) -->

<svg
   width="83.872925mm"
   height="71.17292mm"
   viewBox="0 0 83.872925 71.17292"
   version="1.1"
   id="svg1"
   inkscape:export-filename="traza3.png"
   inkscape:export-xdpi="308.89999"
   inkscape:export-ydpi="308.89999"
   inkscape:version="1.4.2 (ebf0e940d0, 2025-05-08)"
   sodipodi:docname="traza.svg"
   xmlns:inkscape="http://www.inkscape.org/namespaces/inkscape"
   xmlns:sodipodi="http://sodipodi.sourceforge.net/DTD/sodipodi-0.dtd"
   xmlns="http://www.w3.org/2000/svg"
   xmlns:svg="http://www.w3.org/2000/svg">
  <sodipodi:namedview
     id="namedview1"
     pagecolor="#ffffff"
     bordercolor="#000000"
     borderopacity="0.25"
     inkscape:showpageshadow="2"
     inkscape:pageopacity="0.0"
     inkscape:pagecheckerboard="0"
     inkscape:deskcolor="#d1d1d1"
     inkscape:document-units="mm"
     inkscape:zoom="2.8284271"
     inkscape:cx="142.48202"
     inkscape:cy="152.20473"
     inkscape:window-width="1920"
     inkscape:window-height="1008"
     inkscape:window-x="0"
     inkscape:window-y="0"
     inkscape:window-maximized="1"
     inkscape:current-layer="layer1" />
  <defs
     id="defs1">
    <marker
       style="overflow:visible"
       id="DartArrow"
       refX="0"
       refY="0"
       orient="auto-start-reverse"
       inkscape:stockid="Dart arrow"
       markerWidth="1"
       markerHeight="1"
       viewBox="0 0 1 1"
       inkscape:isstock="true"
       inkscape:collect="always"
       preserveAspectRatio="xMidYMid">
      <path
         style="fill:context-stroke;fill-rule:evenodd;stroke:none"
         d="M 0,0 5,-5 -12.5,0 5,5 Z"
         transform="scale(-0.5)"
         id="path6" />
    </marker>
    <rect
       x="23.334524"
       y="30.052038"
       width="31.819805"
       height="26.516504"
       id="rect88" />
  </defs>
  <g
     inkscape:label="Layer 1"
     inkscape:groupmode="layer"
     id="layer1"
     transform="translate(-12.832291,-28.310417)">
    <text
       xml:space="preserve"
       style="font-size:4.33188px;text-align:start;writing-mode:lr-tb;direction:ltr;baseline-shift:baseline;text-anchor:start;fill:#000000;stroke-width:0.0955117"
       x="21.352131"
       y="95.328987"
       id="text5"><tspan
         sodipodi:role="line"
         id="tspan5"
         style="baseline-shift:baseline;stroke-width:0.0955117"
         x="21.352131"
         y="95.328987">s<tspan
   style="font-size:65%;baseline-shift:sub"
   id="tspan18">2</tspan></tspan></text>
    <text
       xml:space="preserve"
       style="font-size:4.33188px;text-align:start;writing-mode:lr-tb;direction:ltr;baseline-shift:baseline;text-anchor:start;fill:#000000;stroke-width:0.0955117"
       x="33.872288"
       y="95.328987"
       id="text8"><tspan
         sodipodi:role="line"
         id="tspan8"
         style="baseline-shift:baseline;stroke-width:0.0955117"
         x="33.872288"
         y="95.328987">s<tspan
   style="font-size:2.81572px;baseline-shift:sub;stroke-width:0.0955117"
   id="tspan7">1</tspan></tspan></text>
    <text
       xml:space="preserve"
       style="font-size:4.33188px;text-align:start;writing-mode:lr-tb;direction:ltr;baseline-shift:baseline;text-anchor:start;fill:#000000;stroke-width:0.0955117"
       x="46.160149"
       y="95.328987"
       id="text10"><tspan
         sodipodi:role="line"
         id="tspan10"
         style="baseline-shift:baseline;stroke-width:0.0955117"
         x="46.160149"
         y="95.328987">s<tspan
   style="font-size:2.81572px;baseline-shift:sub;stroke-width:0.0955117"
   id="tspan9">1</tspan></tspan></text>
    <text
       xml:space="preserve"
       style="font-size:4.33188px;text-align:start;writing-mode:lr-tb;direction:ltr;baseline-shift:baseline;text-anchor:start;fill:#000000;stroke-width:0.0955117"
       x="58.215714"
       y="95.328987"
       id="text12"><tspan
         sodipodi:role="line"
         id="tspan12"
         style="baseline-shift:baseline;stroke-width:0.0955117"
         x="58.215714"
         y="95.328987">s<tspan
   style="font-size:65%;baseline-shift:sub"
   id="tspan19">2</tspan></tspan></text>
    <text
       xml:space="preserve"
       style="font-size:4.33188px;text-align:start;writing-mode:lr-tb;direction:ltr;baseline-shift:baseline;text-anchor:start;fill:#000000;stroke-width:0.0955117"
       x="70.503571"
       y="95.328987"
       id="text14"><tspan
         sodipodi:role="line"
         id="tspan14"
         style="baseline-shift:baseline;stroke-width:0.0955117"
         x="70.503571"
         y="95.328987">s<tspan
   style="font-size:65%;baseline-shift:sub"
   id="tspan20">2</tspan></tspan></text>
    <text
       xml:space="preserve"
       style="font-size:4.33188px;text-align:start;writing-mode:lr-tb;direction:ltr;baseline-shift:baseline;text-anchor:start;fill:#000000;stroke-width:0.0955117"
       x="83.023735"
       y="95.328987"
       id="text16"><tspan
         sodipodi:role="line"
         id="tspan16"
         style="baseline-shift:baseline;stroke-width:0.0955117"
         x="83.023735"
         y="95.328987">s<tspan
   style="font-size:2.81572px;baseline-shift:sub;stroke-width:0.0955117"
   id="tspan15">1</tspan></tspan></text>
    <g
       id="g61">
      <circle
         style="fill:#000000;stroke-width:0.264583"
         id="path1"
         cx="23.232164"
         cy="89.21151"
         r="1.6727159" />
      <circle
         style="fill:#000000;stroke-width:0.264583"
         id="circle1"
         cx="35.520027"
         cy="89.21151"
         r="1.6727159" />
      <circle
         style="fill:#000000;stroke-width:0.264583"
         id="circle2"
         cx="47.807888"
         cy="89.21151"
         r="1.6727159" />
      <circle
         style="fill:#000000;stroke-width:0.264583"
         id="circle3"
         cx="60.095749"
         cy="89.21151"
         r="1.6727159" />
      <circle
         style="fill:#000000;stroke-width:0.264583"
         id="circle4"
         cx="72.383606"
         cy="89.21151"
         r="1.6727159" />
      <circle
         style="fill:#000000;stroke-width:0.264583"
         id="circle5"
         cx="84.671471"
         cy="89.21151"
         r="1.6727159" />
      <rect
         style="fill:#000000;stroke-width:0.264583"
         id="rect5"
         width="68.220123"
         height="0.49784818"
         x="23.064381"
         y="88.91581" />
      <text
         xml:space="preserve"
         style="font-size:3.175px;text-align:start;writing-mode:lr-tb;direction:ltr;text-anchor:start;fill:#000000;stroke-width:0.264583"
         x="92.421806"
         y="89.334831"
         id="text17"><tspan
           sodipodi:role="line"
           id="tspan17"
           style="stroke-width:0.264583"
           x="92.421806"
           y="89.334831">...</tspan></text>
    </g>
    <text
       xml:space="preserve"
       style="font-size:3.175px;text-align:start;writing-mode:lr-tb;direction:ltr;text-anchor:start;fill:#000000;stroke-width:0.264583"
       x="14.499372"
       y="95.508766"
       id="text21"><tspan
         sodipodi:role="line"
         id="tspan21"
         style="stroke-width:0.264583"
         x="14.499372"
         y="95.508766">Ω =</tspan></text>
    <text
       xml:space="preserve"
       style="font-size:2.11667px;text-align:start;writing-mode:lr-tb;direction:ltr;text-anchor:start;fill:#ff0000;stroke-width:0.264583"
       x="21.60874"
       y="85.967232"
       id="text22"><tspan
         sodipodi:role="line"
         id="tspan22"
         style="font-size:2.11667px;fill:#ff0000;stroke-width:0.264583"
         x="21.60874"
         y="85.967232">¬p</tspan></text>
    <text
       xml:space="preserve"
       style="font-size:2.11667px;text-align:start;writing-mode:lr-tb;direction:ltr;text-anchor:start;fill:#ff0000;stroke-width:0.264583"
       x="58.278122"
       y="85.967232"
       id="text23"><tspan
         sodipodi:role="line"
         id="tspan23"
         style="font-size:2.11667px;fill:#ff0000;stroke-width:0.264583"
         x="58.278122"
         y="85.967232">¬p</tspan></text>
    <text
       xml:space="preserve"
       style="font-size:2.11667px;text-align:start;writing-mode:lr-tb;direction:ltr;text-anchor:start;fill:#ff0000;stroke-width:0.264583"
       x="71.093689"
       y="85.967232"
       id="text24"><tspan
         sodipodi:role="line"
         id="tspan24"
         style="font-size:2.11667px;fill:#ff0000;stroke-width:0.264583"
         x="71.093689"
         y="85.967232">¬p</tspan></text>
    <text
       xml:space="preserve"
       style="font-size:2.11667px;text-align:start;writing-mode:lr-tb;direction:ltr;text-anchor:start;fill:#ff0000;stroke-width:0.264583"
       x="35.266216"
       y="85.967232"
       id="text25"><tspan
         sodipodi:role="line"
         id="tspan25"
         style="font-size:2.11667px;fill:#ff0000;stroke-width:0.264583"
         x="35.266216"
         y="85.967232">p</tspan></text>
    <text
       xml:space="preserve"
       style="font-size:2.11667px;text-align:start;writing-mode:lr-tb;direction:ltr;text-anchor:start;fill:#ff0000;stroke-width:0.264583"
       x="46.959255"
       y="85.967232"
       id="text26"><tspan
         sodipodi:role="line"
         id="tspan26"
         style="font-size:2.11667px;fill:#ff0000;stroke-width:0.264583"
         x="46.959255"
         y="85.967232">p</tspan></text>
    <text
       xml:space="preserve"
       style="font-size:2.11667px;text-align:start;writing-mode:lr-tb;direction:ltr;text-anchor:start;fill:#ff0000;stroke-width:0.264583"
       x="84.189896"
       y="86.15432"
       id="text27"><tspan
         sodipodi:role="line"
         id="tspan27"
         style="font-size:2.11667px;fill:#ff0000;stroke-width:0.264583"
         x="84.189896"
         y="86.15432">p</tspan></text>
    <path
       id="circle27"
       style="fill:#1a1a1a;stroke-width:0.264583"
       d="m 37.439821,78.34166 a 1.6727159,1.6727159 0 0 1 -1.672716,1.672715 1.6727159,1.6727159 0 0 1 -1.672716,-1.672715 1.6727159,1.6727159 0 0 1 1.672716,-1.672716 1.6727159,1.6727159 0 0 1 1.672716,1.672716 z" />
    <path
       id="circle28"
       style="fill:#1a1a1a;stroke-width:0.264583"
       d="M 49.727686,78.34166 A 1.6727159,1.6727159 0 0 1 48.05497,80.014375 1.6727159,1.6727159 0 0 1 46.382254,78.34166 1.6727159,1.6727159 0 0 1 48.05497,76.668944 1.6727159,1.6727159 0 0 1 49.727686,78.34166 Z" />
    <path
       id="circle29"
       style="fill:#1a1a1a;stroke-width:0.264583"
       d="m 62.015547,78.34166 a 1.6727159,1.6727159 0 0 1 -1.672716,1.672715 1.6727159,1.6727159 0 0 1 -1.672716,-1.672715 1.6727159,1.6727159 0 0 1 1.672716,-1.672716 1.6727159,1.6727159 0 0 1 1.672716,1.672716 z" />
    <path
       id="circle30"
       style="fill:#1a1a1a;stroke-width:0.264583"
       d="m 74.303407,78.34166 a 1.6727159,1.6727159 0 0 1 -1.672715,1.672715 1.6727159,1.6727159 0 0 1 -1.672716,-1.672715 1.6727159,1.6727159 0 0 1 1.672716,-1.672716 1.6727159,1.6727159 0 0 1 1.672715,1.672716 z" />
    <path
       id="circle31"
       style="fill:#1a1a1a;stroke-width:0.264583"
       d="m 86.591264,78.34166 a 1.6727159,1.6727159 0 0 1 -1.672715,1.672715 1.6727159,1.6727159 0 0 1 -1.672716,-1.672715 1.6727159,1.6727159 0 0 1 1.672716,-1.672716 1.6727159,1.6727159 0 0 1 1.672715,1.672716 z" />
    <path
       id="rect32"
       style="fill:#1a1a1a;stroke-width:0.264583"
       d="m 35.599323,78.045959 h 68.220127 v 0.497849 H 35.599323 Z" />
    <path
       id="circle33"
       style="fill:#333333;stroke-width:0.264583"
       d="m 49.694128,67.471809 a 1.6727159,1.6727159 0 0 1 -1.672716,1.672716 1.6727159,1.6727159 0 0 1 -1.672716,-1.672716 1.6727159,1.6727159 0 0 1 1.672716,-1.672716 1.6727159,1.6727159 0 0 1 1.672716,1.672716 z" />
    <path
       id="circle34"
       style="fill:#333333;stroke-width:0.264583"
       d="m 61.981992,67.471809 a 1.6727159,1.6727159 0 0 1 -1.672715,1.672716 1.6727159,1.6727159 0 0 1 -1.672716,-1.672716 1.6727159,1.6727159 0 0 1 1.672716,-1.672716 1.6727159,1.6727159 0 0 1 1.672715,1.672716 z" />
    <path
       id="circle35"
       style="fill:#333333;stroke-width:0.264583"
       d="m 74.269853,67.471809 a 1.6727159,1.6727159 0 0 1 -1.672716,1.672716 1.6727159,1.6727159 0 0 1 -1.672715,-1.672716 1.6727159,1.6727159 0 0 1 1.672715,-1.672716 1.6727159,1.6727159 0 0 1 1.672716,1.672716 z" />
    <path
       id="circle36"
       style="fill:#333333;stroke-width:0.264583"
       d="m 86.557718,67.471809 a 1.6727159,1.6727159 0 0 1 -1.672716,1.672716 1.6727159,1.6727159 0 0 1 -1.672716,-1.672716 1.6727159,1.6727159 0 0 1 1.672716,-1.672716 1.6727159,1.6727159 0 0 1 1.672716,1.672716 z" />
    <path
       id="rect38"
       style="fill:#333333;stroke-width:0.264583"
       d="m 47.85363,67.176109 h 68.22012 v 0.497848 H 47.85363 Z" />
    <path
       id="circle39"
       style="fill:#666666;stroke-width:0.264583"
       d="m 62.509702,56.601955 a 1.6727159,1.6727159 0 0 1 -1.672715,1.672716 1.6727159,1.6727159 0 0 1 -1.672716,-1.672716 1.6727159,1.6727159 0 0 1 1.672716,-1.672715 1.6727159,1.6727159 0 0 1 1.672715,1.672715 z" />
    <path
       id="circle40"
       style="fill:#666666;stroke-width:0.264583"
       d="m 74.797563,56.601955 a 1.6727159,1.6727159 0 0 1 -1.672716,1.672716 1.6727159,1.6727159 0 0 1 -1.672715,-1.672716 1.6727159,1.6727159 0 0 1 1.672715,-1.672715 1.6727159,1.6727159 0 0 1 1.672716,1.672715 z" />
    <path
       id="circle41"
       style="fill:#666666;stroke-width:0.264583"
       d="m 87.085428,56.601955 a 1.6727159,1.6727159 0 0 1 -1.672716,1.672716 1.6727159,1.6727159 0 0 1 -1.672716,-1.672716 1.6727159,1.6727159 0 0 1 1.672716,-1.672715 1.6727159,1.6727159 0 0 1 1.672716,1.672715 z" />
    <path
       id="rect44"
       style="fill:#666666;stroke-width:0.264583"
       d="m 60.669205,56.306255 h 68.220125 v 0.497849 H 60.669205 Z" />
    <path
       id="circle45"
       style="fill:#999999;stroke-width:0.264583"
       d="m 75.138185,45.732105 a 1.6727159,1.6727159 0 0 1 -1.672716,1.672716 1.6727159,1.6727159 0 0 1 -1.672716,-1.672716 1.6727159,1.6727159 0 0 1 1.672716,-1.672716 1.6727159,1.6727159 0 0 1 1.672716,1.672716 z" />
    <path
       id="circle46"
       style="fill:#999999;stroke-width:0.264583"
       d="m 87.42605,45.732105 a 1.6727159,1.6727159 0 0 1 -1.672716,1.672716 1.6727159,1.6727159 0 0 1 -1.672716,-1.672716 1.6727159,1.6727159 0 0 1 1.672716,-1.672716 1.6727159,1.6727159 0 0 1 1.672716,1.672716 z" />
    <path
       id="rect50"
       style="fill:#999999;stroke-width:0.264583"
       d="m 73.297691,45.436405 h 68.220119 v 0.497848 H 73.297691 Z" />
    <path
       id="circle51"
       style="fill:#b3b3b3;stroke-width:0.264583"
       d="m 87.673128,34.862255 a 1.6727159,1.6727159 0 0 1 -1.672716,1.672716 1.6727159,1.6727159 0 0 1 -1.672716,-1.672716 1.6727159,1.6727159 0 0 1 1.672716,-1.672716 1.6727159,1.6727159 0 0 1 1.672716,1.672716 z" />
    <path
       id="rect56"
       style="fill:#b3b3b3;stroke-width:0.264583"
       d="m 85.832634,34.566555 h 68.220126 v 0.497848 H 85.832634 Z" />
    <path
       id="rect81"
       style="fill:#ffffff;stroke-width:0.264583"
       d="M 91.281248,27.648957 H 172.11146 V 83.740625 H 91.281248 Z" />
    <text
       xml:space="preserve"
       style="font-size:2.11667px;text-align:start;writing-mode:lr-tb;direction:ltr;text-anchor:start;fill:#ff0000;stroke-width:0.264583"
       x="58.278122"
       y="75.303177"
       id="text61"><tspan
         sodipodi:role="line"
         id="tspan61"
         style="font-size:2.11667px;fill:#ff0000;stroke-width:0.264583"
         x="58.278122"
         y="75.303177">¬p</tspan></text>
    <text
       xml:space="preserve"
       style="font-size:2.11667px;text-align:start;writing-mode:lr-tb;direction:ltr;text-anchor:start;fill:#ff0000;stroke-width:0.264583"
       x="71.093689"
       y="75.303177"
       id="text62"><tspan
         sodipodi:role="line"
         id="tspan62"
         style="font-size:2.11667px;fill:#ff0000;stroke-width:0.264583"
         x="71.093689"
         y="75.303177">¬p</tspan></text>
    <text
       xml:space="preserve"
       style="font-size:2.11667px;text-align:start;writing-mode:lr-tb;direction:ltr;text-anchor:start;fill:#ff0000;stroke-width:0.264583"
       x="35.266216"
       y="75.303177"
       id="text63"><tspan
         sodipodi:role="line"
         id="tspan63"
         style="font-size:2.11667px;fill:#ff0000;stroke-width:0.264583"
         x="35.266216"
         y="75.303177">p</tspan></text>
    <text
       xml:space="preserve"
       style="font-size:2.11667px;text-align:start;writing-mode:lr-tb;direction:ltr;text-anchor:start;fill:#ff0000;stroke-width:0.264583"
       x="46.959255"
       y="75.303177"
       id="text64"><tspan
         sodipodi:role="line"
         id="tspan64"
         style="font-size:2.11667px;fill:#ff0000;stroke-width:0.264583"
         x="46.959255"
         y="75.303177">p</tspan></text>
    <text
       xml:space="preserve"
       style="font-size:2.11667px;text-align:start;writing-mode:lr-tb;direction:ltr;text-anchor:start;fill:#ff0000;stroke-width:0.264583"
       x="84.189896"
       y="75.490265"
       id="text65"><tspan
         sodipodi:role="line"
         id="tspan65"
         style="font-size:2.11667px;fill:#ff0000;stroke-width:0.264583"
         x="84.189896"
         y="75.490265">p</tspan></text>
    <text
       xml:space="preserve"
       style="font-size:2.11667px;text-align:start;writing-mode:lr-tb;direction:ltr;text-anchor:start;fill:#ff0000;stroke-width:0.264583"
       x="58.278122"
       y="63.984314"
       id="text70"><tspan
         sodipodi:role="line"
         id="tspan70"
         style="font-size:2.11667px;fill:#ff0000;stroke-width:0.264583"
         x="58.278122"
         y="63.984314">¬p</tspan></text>
    <text
       xml:space="preserve"
       style="font-size:2.11667px;text-align:start;writing-mode:lr-tb;direction:ltr;text-anchor:start;fill:#ff0000;stroke-width:0.264583"
       x="71.093689"
       y="63.984314"
       id="text71"><tspan
         sodipodi:role="line"
         id="tspan71"
         style="font-size:2.11667px;fill:#ff0000;stroke-width:0.264583"
         x="71.093689"
         y="63.984314">¬p</tspan></text>
    <text
       xml:space="preserve"
       style="font-size:2.11667px;text-align:start;writing-mode:lr-tb;direction:ltr;text-anchor:start;fill:#ff0000;stroke-width:0.264583"
       x="46.959255"
       y="63.984314"
       id="text72"><tspan
         sodipodi:role="line"
         id="tspan72"
         style="font-size:2.11667px;fill:#ff0000;stroke-width:0.264583"
         x="46.959255"
         y="63.984314">p</tspan></text>
    <text
       xml:space="preserve"
       style="font-size:2.11667px;text-align:start;writing-mode:lr-tb;direction:ltr;text-anchor:start;fill:#ff0000;stroke-width:0.264583"
       x="84.189896"
       y="64.171402"
       id="text73"><tspan
         sodipodi:role="line"
         id="tspan73"
         style="font-size:2.11667px;fill:#ff0000;stroke-width:0.264583"
         x="84.189896"
         y="64.171402">p</tspan></text>
    <text
       xml:space="preserve"
       style="font-size:2.11667px;text-align:start;writing-mode:lr-tb;direction:ltr;text-anchor:start;fill:#ff0000;stroke-width:0.264583"
       x="58.278122"
       y="52.946083"
       id="text74"><tspan
         sodipodi:role="line"
         id="tspan74"
         style="font-size:2.11667px;fill:#ff0000;stroke-width:0.264583"
         x="58.278122"
         y="52.946083">¬p</tspan></text>
    <text
       xml:space="preserve"
       style="font-size:2.11667px;text-align:start;writing-mode:lr-tb;direction:ltr;text-anchor:start;fill:#ff0000;stroke-width:0.264583"
       x="71.093689"
       y="52.946083"
       id="text75"><tspan
         sodipodi:role="line"
         id="tspan75"
         style="font-size:2.11667px;fill:#ff0000;stroke-width:0.264583"
         x="71.093689"
         y="52.946083">¬p</tspan></text>
    <text
       xml:space="preserve"
       style="font-size:2.11667px;text-align:start;writing-mode:lr-tb;direction:ltr;text-anchor:start;fill:#ff0000;stroke-width:0.264583"
       x="84.189896"
       y="53.133171"
       id="text76"><tspan
         sodipodi:role="line"
         id="tspan76"
         style="font-size:2.11667px;fill:#ff0000;stroke-width:0.264583"
         x="84.189896"
         y="53.133171">p</tspan></text>
    <text
       xml:space="preserve"
       style="font-size:2.11667px;text-align:start;writing-mode:lr-tb;direction:ltr;text-anchor:start;fill:#ff0000;stroke-width:0.264583"
       x="71.093689"
       y="42.469116"
       id="text79"><tspan
         sodipodi:role="line"
         id="tspan79"
         style="font-size:2.11667px;fill:#ff0000;stroke-width:0.264583"
         x="71.093689"
         y="42.469116">¬p</tspan></text>
    <text
       xml:space="preserve"
       style="font-size:2.11667px;text-align:start;writing-mode:lr-tb;direction:ltr;text-anchor:start;fill:#ff0000;stroke-width:0.264583"
       x="84.189896"
       y="42.656204"
       id="text80"><tspan
         sodipodi:role="line"
         id="tspan80"
         style="font-size:2.11667px;fill:#ff0000;stroke-width:0.264583"
         x="84.189896"
         y="42.656204">p</tspan></text>
    <text
       xml:space="preserve"
       style="font-size:2.11667px;text-align:start;writing-mode:lr-tb;direction:ltr;text-anchor:start;fill:#ff0000;stroke-width:0.264583"
       x="84.189896"
       y="32.179237"
       id="text81"><tspan
         sodipodi:role="line"
         id="tspan81"
         style="font-size:2.11667px;fill:#ff0000;stroke-width:0.264583"
         x="84.189896"
         y="32.179237">p</tspan></text>
    <rect
       style="fill:none;stroke:#000000;stroke-width:0.220181"
       id="rect82"
       width="83.65274"
       height="70.952736"
       x="12.942382"
       y="28.420507" />
    <text
       xml:space="preserve"
       style="font-size:2.11667px;text-align:start;writing-mode:lr-tb;direction:ltr;text-anchor:start;fill:#008000;stroke:none;stroke-width:0.264583"
       x="81.493835"
       y="35.139153"
       id="text82"><tspan
         sodipodi:role="line"
         id="tspan82"
         style="fill:#008000;stroke:none;stroke-width:0.264583"
         x="81.493835"
         y="35.139153">◊p</tspan></text>
    <text
       xml:space="preserve"
       style="font-size:2.11667px;text-align:start;writing-mode:lr-tb;direction:ltr;text-anchor:start;fill:#008000;stroke:none;stroke-width:0.264583"
       x="68.771805"
       y="46.17738"
       id="text83"><tspan
         sodipodi:role="line"
         id="tspan83"
         style="fill:#008000;stroke:none;stroke-width:0.264583"
         x="68.771805"
         y="46.17738">◊p</tspan></text>
    <text
       xml:space="preserve"
       style="font-size:2.11667px;text-align:start;writing-mode:lr-tb;direction:ltr;text-anchor:start;fill:#008000;stroke:none;stroke-width:0.264583"
       x="43.421288"
       y="67.786125"
       id="text84"><tspan
         sodipodi:role="line"
         id="tspan84"
         style="fill:#008000;stroke:none;stroke-width:0.264583"
         x="43.421288"
         y="67.786125">◊p</tspan></text>
    <text
       xml:space="preserve"
       style="font-size:2.11667px;text-align:start;writing-mode:lr-tb;direction:ltr;text-anchor:start;fill:#008000;stroke:none;stroke-width:0.264583"
       x="55.956226"
       y="57.12207"
       id="text85"><tspan
         sodipodi:role="line"
         id="tspan85"
         style="fill:#008000;stroke:none;stroke-width:0.264583"
         x="55.956226"
         y="57.12207">◊p</tspan></text>
    <text
       xml:space="preserve"
       style="font-size:2.11667px;text-align:start;writing-mode:lr-tb;direction:ltr;text-anchor:start;fill:#008000;stroke:none;stroke-width:0.264583"
       x="30.979887"
       y="78.824356"
       id="text86"><tspan
         sodipodi:role="line"
         id="tspan86"
         style="fill:#008000;stroke:none;stroke-width:0.264583"
         x="30.979887"
         y="78.824356">◊p</tspan></text>
    <text
       xml:space="preserve"
       style="font-size:2.11667px;text-align:start;writing-mode:lr-tb;direction:ltr;text-anchor:start;fill:#008000;stroke:none;stroke-width:0.264583"
       x="18.16431"
       y="89.769043"
       id="text87"><tspan
         sodipodi:role="line"
         id="tspan87"
         style="fill:#008000;stroke:none;stroke-width:0.264583"
         x="18.16431"
         y="89.769043">◊p</tspan></text>
    <text
       xml:space="preserve"
       transform="matrix(0.26458333,0,0,0.26458333,12.832291,28.310417)"
       id="text88"
       style="fill:#008000;text-align:start;writing-mode:lr-tb;text-orientation:auto;direction:ltr;font-size:8px;stroke:none;white-space:pre;shape-inside:url(#rect88)" />
    <text
       xml:space="preserve"
       style="font-size:4.23333px;text-align:start;writing-mode:lr-tb;direction:ltr;text-anchor:start;fill:#0000ff;stroke:none;stroke-width:0.264583"
       x="26.022043"
       y="42.154976"
       id="text89"><tspan
         sodipodi:role="line"
         id="tspan89"
         style="font-size:4.23333px;fill:#0000ff;stroke-width:0.264583"
         x="26.022043"
         y="42.154976">▫(◊p)</tspan></text>
    <path
       style="fill:none;stroke:#0000ff;stroke-width:0.264583;marker-start:url(#DartArrow)"
       d="m 19.753469,83.786893 8.41899,-37.885456"
       id="path89" />
    <path
       style="fill:none;stroke:#0000ff;stroke-width:0.264583;marker-start:url(#DartArrow)"
       d="M 31.368092,72.401449 31.087459,45.928402"
       id="path90" />
    <path
       style="fill:none;stroke:#0000ff;stroke-width:0.264583;marker-start:url(#DartArrow)"
       d="M 41.605181,63.084996 35.618343,45.685748"
       id="path91" />
    <path
       style="fill:none;stroke:#0000ff;stroke-width:0.264583;marker-start:url(#DartArrow)"
       d="M 52.665697,54.103767 37.60506,44.562246"
       id="path92" />
    <path
       style="fill:none;stroke:#0000ff;stroke-width:0.264583;marker-start:url(#DartArrow)"
       d="m 64.693775,44.99318 c -1.122532,0 -26.56659,-1.496709 -26.56659,-1.496709"
       id="path93" />
    <path
       style="fill:none;stroke:#0000ff;stroke-width:0.264583;marker-start:url(#DartArrow)"
       d="M 77.649747,35.159901 37.706316,42.830536"
       id="path94" />
  </g>
</svg>
